<svg width="56" height="56" viewBox="0 0 56 56" fill="none" xmlns="http://www.w3.org/2000/svg">
<path d="M10.5199 15.1821L10.5199 15.1821C6.75595 15.4235 3.75682 18.4227 3.51538 22.1866C3.49967 22.4316 3.49983 22.6947 3.49997 22.928C3.49999 22.9499 3.5 22.9716 3.5 22.9929V40.6667C3.5 40.7265 3.49998 40.7864 3.49997 40.8463C3.49965 42.1033 3.49932 43.3708 3.64105 44.4249C3.80306 45.6299 4.20577 47.0649 5.4038 48.2629C6.60183 49.4609 8.03676 49.8636 9.24182 50.0257C10.2959 50.1674 11.5634 50.1671 12.8204 50.1667C12.8803 50.1667 12.9402 50.1667 13 50.1667H43C43.0598 50.1667 43.1197 50.1667 43.1796 50.1667C44.4366 50.1671 45.7041 50.1674 46.7582 50.0257C47.9632 49.8636 49.3982 49.4609 50.5962 48.2629C51.7942 47.0649 52.1969 45.6299 52.359 44.4249C52.5007 43.3708 52.5004 42.1033 52.5 40.8464C52.5 40.7864 52.5 40.7266 52.5 40.6667V22.9929C52.5 22.9716 52.5 22.9499 52.5 22.928C52.5002 22.6947 52.5003 22.4316 52.4846 22.1866C52.2432 18.4227 49.244 15.4235 45.4801 15.1821C45.2351 15.1664 44.972 15.1665 44.7387 15.1667C44.7168 15.1667 44.6951 15.1667 44.6738 15.1667C44.5707 15.1667 44.5149 15.1667 44.4733 15.1663C44.4582 15.1662 44.4492 15.166 44.4449 15.166C44.2753 15.1567 44.1219 15.0619 44.0378 14.9144C44.0358 14.9105 44.0316 14.9026 44.0248 14.8891C44.0058 14.852 43.9808 14.8021 43.9348 14.71L41.5694 9.97927C41.5548 9.94997 41.5399 9.92022 41.5248 9.89005C41.2964 9.43256 41.0211 8.88136 40.7263 8.41797C40.3684 7.85559 39.8377 7.17943 38.9888 6.6548L37.1721 9.59428L38.9888 6.65479C38.1399 6.13016 37.2978 5.95782 36.6347 5.88927C36.0884 5.83278 35.4723 5.83309 34.9609 5.83334C34.9272 5.83336 34.8939 5.83337 34.8612 5.83337H21.1388C21.1061 5.83337 21.0728 5.83336 21.0391 5.83334C20.5277 5.83309 19.9116 5.83278 19.3653 5.88927C18.7022 5.95782 17.8601 6.13016 17.0112 6.65479L18.8513 9.63207L17.0112 6.65479C16.1623 7.17943 15.6316 7.85559 15.2737 8.41797C14.9789 8.88138 14.7036 9.43258 14.4752 9.89009C14.4601 9.92024 14.4452 9.94998 14.4306 9.97927L17.5611 11.5445L14.4306 9.97927L12.0652 14.71C12.0652 14.71 12.0652 14.71 12.0652 14.71C12.0192 14.8021 11.9942 14.852 11.9752 14.8891C11.9684 14.9026 11.9642 14.9105 11.9622 14.9144C11.9622 14.9144 11.9622 14.9144 11.9622 14.9144C11.8781 15.0619 11.7247 15.1567 11.5551 15.166C11.5508 15.166 11.5418 15.1662 11.5267 15.1663C11.4851 15.1667 11.4293 15.1667 11.3262 15.1667C11.3049 15.1667 11.2832 15.1667 11.2613 15.1667C11.028 15.1665 10.7649 15.1664 10.5199 15.1821Z" stroke="#222222" stroke-width="7" stroke-linejoin="round"/>
<circle cx="28" cy="30.3333" r="9.33333" stroke="#222222" stroke-width="8"/>
</svg>
