<svg width="80" height="80" viewBox="0 0 80 80" fill="none" xmlns="http://www.w3.org/2000/svg">
<path d="M46.6667 50L33.3333 63.3333L46.6667 76.6667" stroke="#CAC5FF" stroke-width="8" stroke-linejoin="round"/>
<path d="M60.2073 28.3333C62.2552 31.8804 63.3333 35.9041 63.3333 40C63.3333 44.0958 62.2552 48.1195 60.2073 51.6666C58.1593 55.2137 55.2138 58.1593 51.6667 60.2072C48.1195 62.2551 44.0958 63.3333 40 63.3333" stroke="#CAC5FF" stroke-width="8" stroke-linecap="round" stroke-linejoin="round"/>
<path d="M33.3333 30L46.6667 16.6667L33.3333 3.33333" stroke="#CAC5FF" stroke-width="8" stroke-linejoin="round"/>
<path d="M19.7927 51.6667C17.7448 48.1196 16.6667 44.0959 16.6667 40C16.6667 35.9042 17.7448 31.8805 19.7927 28.3334C21.8407 24.7863 24.7862 21.8407 28.3333 19.7928C31.8805 17.7449 35.9042 16.6667 40 16.6667" stroke="#CAC5FF" stroke-width="8" stroke-linecap="round" stroke-linejoin="round"/>
</svg>
