<svg width="80" height="80" viewBox="0 0 80 80" fill="none" xmlns="http://www.w3.org/2000/svg">
<path fill-rule="evenodd" clip-rule="evenodd" d="M7.83824 7.83827C6.66667 9.00984 6.66667 10.8955 6.66667 14.6667V65.3334C6.66667 69.1046 6.66667 70.9902 7.83824 72.1618C9.00982 73.3334 10.8954 73.3334 14.6667 73.3334H65.3333C69.1046 73.3334 70.9902 73.3334 72.1618 72.1618C73.3333 70.9902 73.3333 69.1046 73.3333 65.3334V14.6667C73.3333 10.8955 73.3333 9.00984 72.1618 7.83827C72.0096 7.68613 71.8455 7.55375 71.6667 7.43857V56.6667H69.9804C68.3454 56.6667 67.5279 56.6667 66.7928 56.3622C66.0577 56.0577 65.4796 55.4797 64.3235 54.3236L56.1618 46.1618C54.8284 44.8285 54.1618 44.1618 53.3333 44.1618C52.5049 44.1618 51.8382 44.8285 50.5049 46.1618L42.0888 54.5779C41.1424 55.5243 40.6692 55.9975 40.1482 55.8971C39.6272 55.7968 39.3636 55.1817 38.8363 53.9515L32.3273 38.7638C31.2729 36.3034 30.7456 35.0732 29.7036 34.8725C28.6615 34.6718 27.7151 35.6182 25.8223 37.511L11.6667 51.6667V6.70166C9.79437 6.77942 8.64642 7.0301 7.83824 7.83827Z" fill="#CAC5FF"/>
<path d="M10.6667 14.6666C10.6667 12.6679 10.6752 11.5713 10.7774 10.8105C10.7788 10.8006 10.7801 10.7909 10.7814 10.7814C10.791 10.7801 10.8007 10.7787 10.8106 10.7774C11.5713 10.6751 12.668 10.6666 14.6667 10.6666H65.3333C67.332 10.6666 68.4287 10.6751 69.1894 10.7774C69.1993 10.7787 69.2091 10.7801 69.2186 10.7814C69.2199 10.7909 69.2212 10.8006 69.2226 10.8105C69.3248 11.5713 69.3333 12.6679 69.3333 14.6666V65.3333C69.3333 67.332 69.3248 68.4286 69.2226 69.1894C69.2212 69.1993 69.2199 69.209 69.2186 69.2185C69.2091 69.2198 69.1993 69.2212 69.1894 69.2225C68.4287 69.3248 67.332 69.3333 65.3333 69.3333H14.6667C12.668 69.3333 11.5713 69.3248 10.8106 69.2225C10.8007 69.2212 10.791 69.2198 10.7814 69.2185C10.7801 69.209 10.7788 69.1993 10.7774 69.1894C10.6752 68.4286 10.6667 67.332 10.6667 65.3333V14.6666ZM10.8603 10.3904C10.8603 10.3904 10.8599 10.3916 10.8589 10.394C10.8598 10.3915 10.8603 10.3903 10.8603 10.3904ZM10.394 10.8589C10.3917 10.8598 10.3905 10.8603 10.3904 10.8602C10.3904 10.8602 10.3916 10.8598 10.394 10.8589ZM69.1411 10.394C69.1401 10.3917 69.1397 10.3904 69.1397 10.3904C69.1397 10.3903 69.1402 10.3915 69.1411 10.394ZM69.6096 10.8602C69.6096 10.8603 69.6083 10.8598 69.606 10.8589C69.6084 10.8598 69.6096 10.8602 69.6096 10.8602ZM69.1397 69.6096C69.1397 69.6095 69.1401 69.6083 69.1411 69.6059C69.1402 69.6084 69.1397 69.6096 69.1397 69.6096ZM69.6058 69.1411C69.6082 69.1401 69.6096 69.1397 69.6096 69.1397C69.6096 69.1397 69.6084 69.1402 69.6058 69.1411ZM10.3904 69.1397C10.3904 69.1397 10.3917 69.1401 10.394 69.141C10.3916 69.1402 10.3904 69.1397 10.3904 69.1397ZM10.8589 69.6059C10.8599 69.6083 10.8603 69.6095 10.8603 69.6095C10.8603 69.6096 10.8598 69.6084 10.8589 69.6059Z" stroke="#CAC5FF" stroke-width="8" stroke-linejoin="round"/>
<circle cx="50" cy="30" r="6.66667" fill="#CAC5FF"/>
</svg>
