<svg width="80" height="80" viewBox="0 0 80 80" fill="none" xmlns="http://www.w3.org/2000/svg">
    <path
        d="M39.3359 73.0155L39.3358 73.0154C37.6094 72.6352 36.76 71.369 36.4309 70.6327C36.142 69.9862 36.0721 69.3938 36.0474 69.165C35.9987 68.7114 35.9994 68.1694 35.9999 67.8217C35.9999 67.7893 36 67.7586 36 67.7299V50H26.4632C26.4193 50 26.3735 50.0001 26.3261 50.0001C25.7567 50.0009 24.9493 50.002 24.255 49.899C23.4351 49.7774 21.7606 49.3756 20.685 47.6923C19.6093 46.009 19.9482 44.3206 20.1823 43.5256C20.3805 42.8522 20.7208 42.12 20.9607 41.6036C20.9806 41.5606 20.9999 41.5191 21.0184 41.4793L35.4164 10.3796M39.3359 73.0155L35.4164 10.3796M39.3359 73.0155C41.0623 73.3957 42.365 72.6036 42.973 72.0736C43.5068 71.6083 43.8191 71.1001 43.9376 70.9028C44.1724 70.5117 44.3994 70.0195 44.5451 69.7038C44.5586 69.6744 44.5715 69.6465 44.5836 69.6204L58.9816 38.5207C59 38.4809 59.0193 38.4394 59.0393 38.3964C59.2792 37.8801 59.6194 37.1478 59.8177 36.4744C60.0518 35.6794 60.3906 33.991 59.315 32.3077L55.9444 34.4615L59.315 32.3077C58.2393 30.6244 56.5649 30.2226 55.745 30.101C55.0506 29.998 54.2432 29.9991 53.6739 29.9999C53.6265 29.9999 53.5807 30 53.5368 30H44V12.2701C44 12.2414 44 12.2107 44.0001 12.1783C44.0005 11.8306 44.0013 11.2886 43.9525 10.835C43.9279 10.6062 43.858 10.0138 43.5691 9.36732C43.24 8.63096 42.3906 7.36479 40.6641 6.98454C38.9377 6.6043 37.6349 7.39643 37.0269 7.9264C36.4932 8.39165 36.1808 8.89989 36.0624 9.09719C35.8275 9.4883 35.6005 9.98049 35.4549 10.2962C35.4413 10.3256 35.4285 10.3535 35.4164 10.3796M39.3359 73.0155L35.4164 10.3796"
        stroke="#FAF5E5" stroke-width="8" />
</svg>