<svg width="80" height="80" viewBox="0 0 80 80" fill="none" xmlns="http://www.w3.org/2000/svg">
<path d="M13.3334 26.6667L10.5049 29.4951L7.67652 26.6667L10.5049 23.8383L13.3334 26.6667ZM48.3334 63.3333L48.3334 67.3333L48.3334 63.3333ZM30 67.3333C27.7909 67.3333 26 65.5425 26 63.3333C26 61.1242 27.7909 59.3333 30 59.3333L30 67.3333ZM27.1716 46.1618L10.5049 29.4951L16.1618 23.8383L32.8285 40.5049L27.1716 46.1618ZM10.5049 23.8383L27.1716 7.17158L32.8285 12.8284L16.1618 29.4951L10.5049 23.8383ZM13.3334 22.6667L48.3334 22.6667L48.3334 30.6667L13.3334 30.6667L13.3334 22.6667ZM48.3334 67.3333L30 67.3333L30 59.3333L48.3334 59.3333L48.3334 67.3333ZM70.6667 45C70.6667 57.3344 60.6677 67.3333 48.3334 67.3333L48.3334 59.3333C56.2495 59.3333 62.6667 52.9161 62.6667 45L70.6667 45ZM48.3334 22.6667C60.6677 22.6667 70.6667 32.6656 70.6667 45L62.6667 45C62.6667 37.0839 56.2495 30.6667 48.3334 30.6667L48.3334 22.6667Z" fill="#FAF5E5"/>
</svg>
