<svg width="1028" height="188" viewBox="0 0 1028 188" fill="none" xmlns="http://www.w3.org/2000/svg">
<path d="M54 4H44C25.1438 4 15.7157 4 9.85786 9.85786C4 15.7157 4 25.1438 4 44V54" stroke="#FFFCF3" stroke-width="8" stroke-linecap="round"/>
<path d="M54 184H44C25.1438 184 15.7157 184 9.85786 178.142C4 172.284 4 162.856 4 144V134" stroke="#FFFCF3" stroke-width="8" stroke-linecap="round"/>
<path d="M974 4H984C1002.86 4 1012.28 4 1018.14 9.85786C1024 15.7157 1024 25.1438 1024 44V54" stroke="#FFFCF3" stroke-width="8" stroke-linecap="round"/>
<path d="M974 184H984C1002.86 184 1012.28 184 1018.14 178.142C1024 172.284 1024 162.856 1024 144V134" stroke="#FFFCF3" stroke-width="8" stroke-linecap="round"/>
<path d="M514 74L514 114" stroke="#FFFCF3" stroke-width="8" stroke-linecap="round"/>
<path d="M534 94L494 94" stroke="#FFFCF3" stroke-width="8" stroke-linecap="round"/>
</svg>
