<svg width="64" height="54" viewBox="0 0 64 54" fill="none" xmlns="http://www.w3.org/2000/svg">
<path d="M32 11.353L29.4304 8.28755L32 6.13362L34.5696 8.28754L32 11.353ZM36 31.4707C36 33.6798 34.2091 35.4707 32 35.4707C29.7909 35.4707 28 33.6798 28 31.4707L36 31.4707ZM16.0971 19.464L29.4304 8.28755L34.5696 14.4185L21.2363 25.595L16.0971 19.464ZM34.5696 8.28754L47.9029 19.464L42.7637 25.595L29.4304 14.4185L34.5696 8.28754ZM36 11.353L36 31.4707L28 31.4707L28 11.353L36 11.353Z" fill="#33363F"/>
<path d="M13.3333 35.9412L13.3333 38.1765C13.3333 40.6455 15.7212 42.647 18.6667 42.647L45.3333 42.647C48.2789 42.647 50.6667 40.6455 50.6667 38.1765V35.9412" stroke="#33363F" stroke-width="8" stroke-linecap="round"/>
</svg>
